<svg width="16" height="16" viewBox="0 0 16 16" fill="none" xmlns="http://www.w3.org/2000/svg">
<path fill-rule="evenodd" clip-rule="evenodd" d="M7.64645 3.14645C7.84171 2.95118 8.15829 2.95118 8.35355 3.14645L10.8536 5.64645C11.0488 5.84171 11.0488 6.15829 10.8536 6.35355C10.6583 6.54882 10.3417 6.54882 10.1464 6.35355L8 4.20711L5.85355 6.35355C5.65829 6.54882 5.34171 6.54882 5.14645 6.35355C4.95118 6.15829 4.95118 5.84171 5.14645 5.64645L7.64645 3.14645ZM5.14645 9.64645C5.34171 9.45118 5.65829 9.45118 5.85355 9.64645L8 11.7929L10.1464 9.64645C10.3417 9.45118 10.6583 9.45118 10.8536 9.64645C11.0488 9.84171 11.0488 10.1583 10.8536 10.3536L8.35355 12.8536C8.15829 13.0488 7.84171 13.0488 7.64645 12.8536L5.14645 10.3536C4.95118 10.1583 4.95118 9.84171 5.14645 9.64645Z" fill="#A1A1AA"/>
</svg>
